<svg width="512" height="512" viewBox="0 0 512 512" fill="none" xmlns="http://www.w3.org/2000/svg">
<g clip-path="url(#clip0)">
<path d="M384.521 98.148C408.386 70.474 373.246 31.447 343.23 52.289C353.776 17.301 305.801 -4.05901 286.856 27.19C282.26 -9.06301 229.744 -9.06301 225.147 27.19C206.203 -4.05901 158.226 17.301 168.773 52.289C138.755 31.447 103.615 70.474 127.48 98.148C91.582 91.316 75.353 141.263 108.411 156.837V180.675H403.59V156.837C436.648 141.263 420.419 91.316 384.521 98.148Z" fill="#FFF7E6"/>
<path d="M348.818 129.756C343.893 129.756 339.857 125.808 339.768 120.864C339.663 114.945 337.185 109.504 332.793 105.541C328.6 101.759 323.18 99.838 317.549 100.127C311.911 100.417 306.723 102.885 302.941 107.078C300.049 110.284 295.295 111.003 291.585 108.792C287.875 106.582 286.242 102.059 287.685 97.99C289.083 94.045 288.861 89.793 287.06 86.015C285.259 82.236 282.095 79.388 278.15 77.99C270.006 75.105 261.034 79.382 258.149 87.526C256.479 92.239 251.303 94.706 246.591 93.036C241.878 91.366 239.411 86.191 241.081 81.478C247.3 63.923 266.641 54.702 284.197 60.922C292.7 63.935 299.522 70.08 303.405 78.222C304.331 80.164 305.064 82.165 305.601 84.2C309.105 82.972 312.807 82.24 316.619 82.043C327.093 81.503 337.14 85.074 344.923 92.095C352.96 99.345 357.682 109.713 357.875 120.539C357.964 125.538 353.984 129.664 348.984 129.754C348.928 129.756 348.873 129.756 348.818 129.756Z" fill="#F2CC7B"/>
<path d="M170.677 180.675L177.21 204.515L163.166 216.741L186.02 498.737L198.934 512H370.773L419.09 180.675H170.677Z" fill="#9000FF"/>
<path d="M256.001 204.515V512H313.067L334.792 204.515L316.703 181.544H270.135L256.001 204.515Z" fill="#9000FF"/>
<path d="M170.677 180.675H92.911L141.227 512H198.934L177.21 204.515L170.677 180.675Z" fill="#9000FF"/>
<path opacity="0.1" d="M92.911 180.675L100.788 234.695H411.213L419.09 180.675H170.677H92.911Z" fill="black"/>
<path d="M412.23 156.837H99.772C86.606 156.837 75.934 167.51 75.934 180.675C75.934 193.841 86.607 204.513 99.772 204.513H412.229C425.395 204.513 436.068 193.84 436.068 180.675C436.068 167.509 425.395 156.837 412.23 156.837Z" fill="#9000FF"/>
</g>
<defs>
<clipPath id="clip0">
<rect width="512" height="512" fill="white"/>
</clipPath>
</defs>
</svg>
